<svg width="45" height="33" viewBox="0 0 45 33" fill="none" xmlns="http://www.w3.org/2000/svg">
<path d="M10.5 24.75C9.2574 24.75 8.25 25.7574 8.25 27C8.25 28.2426 9.25731 29.25 10.5 29.25C11.7427 29.25 12.75 28.2427 12.75 27C12.7486 25.758 11.7421 24.7513 10.5 24.75ZM10.5 27.75C10.0858 27.75 9.75003 27.4143 9.75003 27C9.75003 26.5858 10.0858 26.2501 10.5 26.2501C10.9142 26.2501 11.25 26.5858 11.25 27C11.2495 27.4141 10.9141 27.7496 10.5 27.75Z" fill="#337D5A"/>
<path d="M34.5 24.75C33.2574 24.75 32.25 25.7574 32.25 27C32.25 28.2426 33.2574 29.25 34.5 29.25C35.7426 29.25 36.75 28.2427 36.75 27C36.7487 25.758 35.7421 24.7513 34.5 24.75ZM34.5 27.75C34.0858 27.75 33.75 27.4143 33.75 27C33.75 26.5858 34.0859 26.2501 34.5 26.2501C34.9142 26.2501 35.25 26.5858 35.25 27C35.2496 27.4141 34.9141 27.7496 34.5 27.75Z" fill="#337D5A"/>
<path d="M44.4284 14.0742L39.2619 8.25586C38.8339 7.77387 38.2197 7.49868 37.5751 7.5H30.75V3C30.7487 1.75793 29.7421 0.751318 28.5 0.75H2.25C1.00793 0.751318 0.00131843 1.75793 7.32452e-08 3V22.5C-8.78174e-05 22.6989 0.0789259 22.8897 0.219639 23.0305C0.360264 23.1711 0.551074 23.2501 0.750059 23.2501H1.50003V25.5001C1.50135 26.7422 2.50796 27.7488 3.75003 27.7501H5.30991C5.67958 30.3323 7.89144 32.2501 10.5 32.2501C13.1086 32.2501 15.3205 30.3323 15.6901 27.7501H29.31C29.6797 30.3323 31.8916 32.2501 34.5001 32.2501C37.1087 32.2501 39.3206 30.3323 39.6903 27.7501H42.75C43.9921 27.7488 44.9987 26.7422 45 25.5001V15.5699C44.9995 15.018 44.796 14.4857 44.4284 14.0742ZM1.50003 21.75V3C1.50047 2.58595 1.83595 2.25038 2.25 2.25003H28.5C28.9141 2.25047 29.2496 2.58595 29.25 3V21.75H1.50003ZM5.30991 26.25H3.75003C3.33598 26.2495 3.00041 25.9141 3.00006 25.5V23.25H6.83297C6.00908 24.0553 5.47374 25.1097 5.30991 26.25ZM10.5 30.75C8.42898 30.75 6.75 29.071 6.75 26.9999C6.75 24.9289 8.42898 23.25 10.5 23.25C12.5711 23.25 14.2501 24.929 14.2501 27C14.2476 29.07 12.57 30.7476 10.5 30.75ZM18 26.25H15.6901C15.5262 25.1097 14.991 24.0552 14.1671 23.25H18V26.25ZM24.75 26.25H19.5V23.25H24.75V26.25ZM29.3099 26.25H26.25V23.25H30.8329C30.009 24.0553 29.4738 25.1097 29.3099 26.25ZM34.5 30.75C32.4289 30.75 30.7499 29.071 30.7499 26.9999C30.7499 24.9289 32.4288 23.2499 34.5 23.2499C36.571 23.2499 38.25 24.9289 38.25 26.9999C38.2475 29.07 36.5701 30.7476 34.5 30.75ZM43.5 25.5C43.4995 25.9141 43.1641 26.2496 42.75 26.25H39.6901C39.3161 23.6701 37.1069 21.7546 34.5 21.75H30.7499V9.00003H33.75V16.5C33.7513 17.7421 34.7579 18.7487 36 18.75H43.5V25.5ZM43.5 17.25H36C35.5859 17.2495 35.2504 16.9141 35.25 16.5V9.00003H37.5751C37.7904 8.9988 37.9959 9.09003 38.1394 9.25052L43.3078 15.0711C43.4308 15.2082 43.4992 15.3856 43.5001 15.5699V17.25H43.5Z" fill="#337D5A"/>
</svg>
