<svg width="22" height="21" viewBox="0 0 22 21" fill="none" xmlns="http://www.w3.org/2000/svg">
<path d="M7.00781 7.91803C5.83651 7.91803 4.83788 8.63766 4.46709 9.63934H0V11.3607H4.46709C4.83788 12.3623 5.83651 13.082 7.00781 13.082C8.17912 13.082 9.17775 12.3623 9.54853 11.3607H23V9.63934H9.54853C9.17775 8.63766 8.17912 7.91803 7.00781 7.91803ZM7.00781 11.3607C6.51244 11.3607 6.10938 10.9745 6.10938 10.5C6.10938 10.0255 6.51244 9.63934 7.00781 9.63934C7.50318 9.63934 7.90625 10.0255 7.90625 10.5C7.90625 10.9745 7.50318 11.3607 7.00781 11.3607ZM19.072 1.72131C18.7012 0.719622 17.7026 0 16.5312 0C15.3599 0 14.3613 0.719622 13.9905 1.72131H0V3.44262H13.9905C14.3613 4.44431 15.3599 5.16393 16.5312 5.16393C17.7026 5.16393 18.7012 4.44431 19.072 3.44262H23V1.72131H19.072ZM16.5312 3.44262C16.0359 3.44262 15.6328 3.0565 15.6328 2.58197C15.6328 2.10743 16.0359 1.72131 16.5312 1.72131C17.0266 1.72131 17.4297 2.10743 17.4297 2.58197C17.4297 3.0565 17.0266 3.44262 16.5312 3.44262ZM14.8242 15.8361C13.6529 15.8361 12.6543 16.5557 12.2835 17.5574H0V19.2787H12.2835C12.6543 20.2804 13.6529 21 14.8242 21C15.9955 21 16.9942 20.2804 17.3649 19.2787H23V17.5574H17.3649C16.9942 16.5557 15.9955 15.8361 14.8242 15.8361ZM14.8242 19.2787C14.3288 19.2787 13.9258 18.8926 13.9258 18.418C13.9258 17.9435 14.3288 17.5574 14.8242 17.5574C15.3196 17.5574 15.7227 17.9435 15.7227 18.418C15.7227 18.8926 15.3196 19.2787 14.8242 19.2787Z" fill="#337D5A"/>
</svg>
