<svg width="49" height="64" viewBox="0 0 49 64" fill="none" xmlns="http://www.w3.org/2000/svg">
<g clip-path="url(#clip0_165_23)">
<path d="M0.525665 33.4352C0.686449 28.7549 1.28135 24.1884 2.93742 19.8006C5.79937 12.2114 11.1052 7.31985 18.9193 5.25598C20.913 4.7197 22.6656 3.90715 23.7428 1.95703C24.386 0.786957 25.5275 0.689451 26.5405 1.58326C27.3122 2.2658 27.9875 3.02959 28.7432 3.72839C30.0938 4.99596 31.6855 5.90602 33.4381 6.4748C42.3294 9.26997 47.1529 15.6079 48.3267 24.7247C49.5325 34.0852 48.0533 43.1533 43.9855 51.6688C41.22 57.4542 36.7985 61.3869 30.4475 62.7682C28.8879 63.1095 27.264 63.1908 25.6722 63.3533C24.5628 63.467 23.4373 63.467 22.3119 63.5645C14.6586 64.2471 9.11151 60.9644 5.34918 54.3665C3.1786 50.5475 2.06919 46.371 1.44213 42.0645C1.02409 39.2043 0.815076 36.3116 0.525665 33.4352ZM25.0773 3.9559C24.9809 3.9559 24.9005 3.9559 24.804 3.93965C23.4534 5.74351 21.5401 6.60481 19.4499 7.15734C15.8323 8.11615 12.5844 9.77375 9.91543 12.4552C6.21741 16.1279 4.288 20.6944 3.33938 25.7485C2.19782 31.8426 2.53546 37.9205 3.75742 43.9821C4.62565 48.2724 6.00839 52.3513 8.72563 55.8291C12.1503 60.2168 16.588 62.3132 22.1672 61.5819C22.4887 61.5332 22.955 61.2569 23.0354 60.9806C23.9679 57.8279 24.1769 54.6915 23.0515 51.5063C21.2668 46.4847 20.5272 41.3007 21.5079 36.0191C22.1028 32.7527 22.955 29.535 23.8554 26.3335C25.3828 20.9382 26.6369 15.5266 25.9938 9.87126C25.7687 7.87239 25.3828 5.92227 25.0773 3.9559ZM25.0291 61.3219C25.3024 61.3544 25.4793 61.3869 25.6562 61.3869C32.1197 61.2406 37.313 58.7055 40.9467 53.1801C43.069 49.93 44.3553 46.3222 45.2075 42.5683C46.5259 36.6854 47.3298 30.7375 46.4133 24.6922C45.1592 16.5829 40.9788 10.8788 33.004 8.39242C31.2032 7.82364 29.5471 6.94608 28.0679 5.74351C27.8428 5.56475 27.6177 5.38599 27.2962 5.12597C27.3283 5.43474 27.3283 5.59725 27.3605 5.74351C28.1965 10.0825 28.4699 14.4703 27.5856 18.8093C26.8299 22.5308 25.8973 26.236 24.7879 29.8762C22.5852 37.1567 22.4083 44.3396 25.1095 51.5225C25.415 52.3513 25.5436 53.2452 25.6722 54.139C26.0099 56.5441 25.6401 58.8842 25.0291 61.3219Z" fill="white"/>
<path d="M9.75466 34.2154C9.62603 32.9803 9.46525 31.7453 9.3527 30.5102C8.9829 26.0899 10.1405 22.1572 13.0025 18.7607C13.5331 18.1269 14.1441 18.0294 14.5942 18.4195C15.0605 18.8257 15.0123 19.4108 14.4817 20.0608C11.7001 23.3923 10.8319 27.2437 11.4429 31.5178C11.9735 35.1742 11.7001 38.7495 10.3817 42.2272C10.2531 42.5847 10.0923 42.926 9.89936 43.251C9.5778 43.8035 9.09544 43.9985 8.5327 43.6898C8.00211 43.3972 7.88957 42.9097 8.1629 42.3572C9.11152 40.4396 9.52956 38.3757 9.65819 36.2631C9.70642 35.5968 9.65819 34.9142 9.65819 34.2317C9.69034 34.2154 9.7225 34.2154 9.75466 34.2154Z" fill="white"/>
<path d="M22.0546 16.9569C21.8456 19.5083 21.2185 21.8972 20.3503 24.2373C20.077 24.9524 19.5464 25.2449 18.9836 24.9849C18.3405 24.6761 18.2923 24.1398 18.5173 23.5385C19.257 21.5559 19.884 19.5408 19.9001 17.4119C19.9162 16.4043 19.7071 15.3805 19.4981 14.4055C19.3695 13.7879 19.3856 13.3004 19.9805 13.0404C20.6075 12.7804 21.1381 13.0241 21.315 13.6742C21.6205 14.7467 21.8134 15.8518 22.0546 16.9569Z" fill="white"/>
<path d="M18.7907 48.4024C18.6781 50.4825 18.3566 52.4977 17.633 54.4478C17.5527 54.6428 17.4723 54.8541 17.3758 55.0491C17.1025 55.6179 16.6683 55.8941 16.0734 55.6341C15.4625 55.3741 15.366 54.8541 15.5911 54.2853C16.797 51.2951 17.0221 48.2074 16.395 45.0547C16.2825 44.4697 16.5076 44.0147 17.1025 43.8684C17.7134 43.7221 18.1797 43.9984 18.2923 44.6322C18.4852 45.8998 18.6299 47.1511 18.7907 48.4024Z" fill="white"/>
<path d="M42.7475 34.2967C42.7153 38.6519 41.9436 41.9834 39.7087 44.8598C39.3871 45.2823 39.0173 45.6886 38.5993 46.0136C38.1812 46.3549 37.6024 46.3387 37.3291 45.8674C37.1522 45.5424 37.104 44.8598 37.313 44.6486C40.9949 40.7158 41.22 36.0193 40.3679 31.0627C40.3518 30.9815 40.3357 30.9002 40.3357 30.819C40.2392 30.2014 40.4322 29.7139 41.0753 29.5839C41.7345 29.4539 42.1526 29.7952 42.249 30.4777C42.442 32.0215 42.6349 33.5329 42.7475 34.2967Z" fill="white"/>
<path d="M32.9075 47.8338C32.8914 50.4989 32.4895 53.0991 31.7338 55.6668C31.5569 56.2518 31.2353 56.6418 30.5761 56.5443C30.0134 56.4631 29.7561 56.073 29.7561 55.5205C29.7561 55.3092 29.8526 55.098 29.9169 54.903C30.9942 50.9052 31.3961 46.8912 30.335 42.8122C30.2063 42.3247 30.0295 41.8372 29.8687 41.3496C29.6597 40.7159 29.7561 40.2121 30.4153 39.9683C31.0906 39.7245 31.4765 40.0983 31.7177 40.6996C32.4895 42.7635 32.8593 44.9086 32.9075 47.1187C32.9075 47.3463 32.9075 47.59 32.9075 47.8338Z" fill="white"/>
<path d="M34.6279 19.8008C34.3063 23.4898 35.0298 27 36.6055 30.3314C36.9432 31.0465 36.8306 31.6153 36.2679 31.859C35.5765 32.1678 35.1424 31.8265 34.853 31.2252C33.1326 27.6825 32.3769 23.9448 32.6342 19.9958C32.6502 19.8658 32.6824 19.7358 32.6985 19.5895C32.7789 18.9395 33.1326 18.6145 33.7757 18.6632C34.3385 18.6957 34.6761 19.1508 34.6279 19.8008Z" fill="white"/>
</g>
<defs>
<clipPath id="clip0_165_23">
<rect width="48.2029" height="62.6638" fill="white" transform="translate(0.525665 0.982178)"/>
</clipPath>
</defs>
</svg>
