<svg width="80" height="16" viewBox="0 0 80 16" fill="none" xmlns="http://www.w3.org/2000/svg">
<path d="M3.42647 7.9238H4.85148V13.7903C4.85148 13.9061 4.94534 14 5.06116 14H7.47732C7.59314 14 7.68699 13.9061 7.68699 13.7903V7.95144H9.32516C9.43168 7.95144 9.52129 7.87151 9.53345 7.7657L9.78226 5.60594C9.78909 5.54652 9.77026 5.48701 9.73051 5.44244C9.69071 5.39782 9.63376 5.37228 9.57401 5.37228H7.68708V4.01843C7.68708 3.61032 7.90682 3.40336 8.34026 3.40336C8.40204 3.40336 9.57401 3.40336 9.57401 3.40336C9.68983 3.40336 9.78368 3.30947 9.78368 3.19369V1.21123C9.78368 1.0954 9.68983 1.00155 9.57401 1.00155H7.87373C7.86174 1.00096 7.83511 1 7.79586 1C7.50084 1 6.47539 1.05791 5.66537 1.80311C4.76786 2.6289 4.89262 3.61766 4.92244 3.78909V5.37224H3.42647C3.31065 5.37224 3.2168 5.46609 3.2168 5.58191V7.71408C3.2168 7.82991 3.31065 7.9238 3.42647 7.9238Z" fill="#EFEFEF"/>
<g clip-path="url(#clip0_410_8)">
<path d="M40.4874 1H34.5126C32.5757 1 31 2.57574 31 4.51256V10.4874C31 12.4243 32.5757 14 34.5126 14H40.4874C42.4243 14 44 12.4243 44 10.4874V4.51256C44 2.57574 42.4243 1 40.4874 1ZM42.9497 10.4874C42.9497 11.8451 41.8452 12.9497 40.4874 12.9497H34.5126C33.1549 12.9497 32.0503 11.8452 32.0503 10.4874V4.51256C32.0503 3.15485 33.1548 2.05026 34.5126 2.05026H40.4874C41.8451 2.05026 42.9497 3.15483 42.9497 4.51256V10.4874Z" fill="#EFEFEF"/>
<path d="M40.4096 7.0466C40.3172 6.42333 40.0328 5.85844 39.5873 5.41291C39.1418 4.96741 38.5769 4.68303 37.9536 4.59064C37.6699 4.54856 37.3822 4.54856 37.0984 4.59064C36.3282 4.70487 35.6486 5.11219 35.1847 5.73758C34.7208 6.36298 34.5282 7.1316 34.6425 7.9018C34.7567 8.67203 35.164 9.35166 35.7894 9.81555C36.2971 10.1921 36.8991 10.3899 37.5199 10.3899C37.6638 10.3899 37.8087 10.3792 37.9536 10.3577C38.7239 10.2435 39.4035 9.83619 39.8674 9.21079C40.3313 8.58542 40.5238 7.81682 40.4096 7.0466ZM37.7996 9.31883C37.3069 9.392 36.8152 9.26873 36.4151 8.97199C36.015 8.67525 35.7545 8.24046 35.6814 7.74776C35.6083 7.25505 35.7315 6.76336 36.0283 6.36328C36.325 5.9632 36.7598 5.70264 37.2525 5.62957C37.3433 5.61611 37.4346 5.60938 37.526 5.60938C37.6174 5.60938 37.7088 5.61611 37.7996 5.6296C38.6179 5.75094 39.2493 6.3823 39.3707 7.20069C39.5215 8.21779 38.8167 9.16801 37.7996 9.31883Z" fill="#EFEFEF"/>
<path d="M41.1577 3.84229C41.0599 3.74451 40.9246 3.68848 40.7864 3.68848C40.6482 3.68848 40.5129 3.74449 40.415 3.84229C40.3173 3.9401 40.2612 4.07523 40.2612 4.21363C40.2612 4.35204 40.3173 4.48717 40.415 4.58497C40.5129 4.68275 40.6482 4.73879 40.7864 4.73879C40.9246 4.73879 41.0599 4.68277 41.1577 4.58497C41.2555 4.48717 41.3115 4.35181 41.3115 4.21363C41.3115 4.07543 41.2555 3.94007 41.1577 3.84229Z" fill="#EFEFEF"/>
</g>
<path d="M79.3764 12.6633C78.7988 13.3498 77.7325 13.6299 75.6961 13.6299H68.3038C66.2207 13.6299 65.1364 13.3318 64.561 12.6008C64 11.8882 64 10.8381 64 9.38477V6.61476C64 3.79922 64.6656 2.3697 68.3038 2.3697H75.6961C77.4621 2.3697 78.4407 2.61682 79.0738 3.22271C79.723 3.84402 80 4.85848 80 6.61476V9.38477C80 10.9174 79.9566 11.9737 79.3764 12.6633ZM74.2721 7.61734L70.9153 5.86297C70.8402 5.82374 70.7581 5.80428 70.6762 5.80428C70.5834 5.80428 70.4908 5.82926 70.4088 5.87892C70.2543 5.97249 70.1601 6.13987 70.1601 6.32041V9.81791C70.1601 9.99814 70.2541 10.1654 70.4082 10.259C70.5624 10.3526 70.7541 10.359 70.9141 10.2759L74.2709 8.53285C74.4417 8.44418 74.5489 8.26787 74.5492 8.07551C74.5494 7.88299 74.4426 7.70642 74.2721 7.61734Z" fill="#EFEFEF"/>
<defs>
<clipPath id="clip0_410_8">
<rect width="13" height="13" fill="white" transform="translate(31 1)"/>
</clipPath>
</defs>
</svg>
