<svg width="80" height="16" viewBox="0 0 80 16" fill="none" xmlns="http://www.w3.org/2000/svg">
<path d="M3.42626 7.9238H4.85127V13.7903C4.85127 13.9061 4.94512 14 5.06095 14H7.4771C7.59293 14 7.68678 13.9061 7.68678 13.7903V7.95144H9.32495C9.43146 7.95144 9.52108 7.87151 9.53324 7.7657L9.78204 5.60594C9.78888 5.54652 9.77005 5.48701 9.7303 5.44244C9.6905 5.39782 9.63355 5.37228 9.57379 5.37228H7.68686V4.01843C7.68686 3.61032 7.90661 3.40336 8.34005 3.40336C8.40182 3.40336 9.57379 3.40336 9.57379 3.40336C9.68962 3.40336 9.78347 3.30947 9.78347 3.19369V1.21123C9.78347 1.0954 9.68962 1.00155 9.57379 1.00155H7.87352C7.86153 1.00096 7.8349 1 7.79564 1C7.50063 1 6.47518 1.05791 5.66515 1.80311C4.76765 2.6289 4.89241 3.61766 4.92222 3.78909V5.37224H3.42626C3.31043 5.37224 3.21658 5.46609 3.21658 5.58191V7.71408C3.21658 7.82991 3.31043 7.9238 3.42626 7.9238Z" fill="#93B474"/>
<g clip-path="url(#clip0_13_54)">
<path d="M40.4874 1H34.5126C32.5757 1 31 2.57574 31 4.51256V10.4874C31 12.4243 32.5757 14 34.5126 14H40.4874C42.4243 14 44 12.4243 44 10.4874V4.51256C44 2.57574 42.4243 1 40.4874 1ZM42.9497 10.4874C42.9497 11.8451 41.8452 12.9497 40.4874 12.9497H34.5126C33.1549 12.9497 32.0503 11.8452 32.0503 10.4874V4.51256C32.0503 3.15485 33.1548 2.05026 34.5126 2.05026H40.4874C41.8451 2.05026 42.9497 3.15483 42.9497 4.51256V10.4874Z" fill="#323232"/>
<path d="M40.4094 7.04654C40.317 6.42327 40.0327 5.85838 39.5871 5.41285C39.1416 4.96735 38.5767 4.68297 37.9535 4.59058C37.6697 4.5485 37.382 4.5485 37.0983 4.59058C36.328 4.70481 35.6484 5.11212 35.1845 5.73752C34.7207 6.36292 34.5281 7.13154 34.6423 7.90174C34.7565 8.67197 35.1638 9.3516 35.7892 9.81548C36.297 10.1921 36.899 10.3898 37.5197 10.3898C37.6636 10.3898 37.8085 10.3792 37.9534 10.3577C38.7237 10.2434 39.4033 9.83613 39.8672 9.21073C40.3311 8.58536 40.5237 7.81676 40.4094 7.04654ZM37.7994 9.31877C37.3067 9.39194 36.815 9.26867 36.4149 8.97193C36.0148 8.67519 35.7543 8.2404 35.6812 7.7477C35.6082 7.25499 35.7313 6.7633 36.0281 6.36322C36.3248 5.96314 36.7596 5.70258 37.2523 5.62951C37.3431 5.61605 37.4345 5.60932 37.5258 5.60932C37.6172 5.60932 37.7086 5.61605 37.7994 5.62953C38.6177 5.75088 39.2491 6.38224 39.3705 7.20063C39.5213 8.21773 38.8165 9.16795 37.7994 9.31877Z" fill="#323232"/>
<path d="M41.1575 3.84248C41.0597 3.7447 40.9243 3.68866 40.7862 3.68866C40.648 3.68866 40.5126 3.74467 40.4148 3.84248C40.3171 3.94028 40.261 4.07541 40.261 4.21381C40.261 4.35222 40.3171 4.48735 40.4148 4.58515C40.5126 4.68293 40.648 4.73897 40.7862 4.73897C40.9243 4.73897 41.0597 4.68296 41.1575 4.58515C41.2553 4.48735 41.3113 4.35199 41.3113 4.21381C41.3113 4.07561 41.2553 3.94026 41.1575 3.84248Z" fill="#323232"/>
</g>
<path d="M79.3764 12.6635C78.7988 13.35 77.7325 13.6301 75.6961 13.6301H68.3038C66.2207 13.6301 65.1364 13.3319 64.561 12.601C64 11.8883 64 10.8383 64 9.38496V6.61494C64 3.79941 64.6656 2.36988 68.3038 2.36988H75.6961C77.4621 2.36988 78.4407 2.61701 79.0738 3.22289C79.723 3.84421 80 4.85866 80 6.61494V9.38496C80 10.9176 79.9566 11.9739 79.3764 12.6635ZM74.2721 7.61752L70.9153 5.86315C70.8402 5.82392 70.7581 5.80447 70.6762 5.80447C70.5834 5.80447 70.4908 5.82945 70.4088 5.8791C70.2543 5.97267 70.1601 6.14005 70.1601 6.32059V9.81809C70.1601 9.99832 70.2541 10.1655 70.4082 10.2592C70.5624 10.3528 70.7541 10.3592 70.9141 10.2761L74.2709 8.53303C74.4417 8.44436 74.5489 8.26805 74.5492 8.07569C74.5494 7.88318 74.4426 7.70661 74.2721 7.61752Z" fill="#323232"/>
<defs>
<clipPath id="clip0_13_54">
<rect width="13" height="13" fill="white" transform="translate(31 1)"/>
</clipPath>
</defs>
</svg>
