<svg width="49" height="35" viewBox="0 0 49 35" fill="none" xmlns="http://www.w3.org/2000/svg">
<path d="M2.76471 0H5.82353C6.02634 0 6.22085 0.0803853 6.36426 0.223473C6.50767 0.366561 6.58824 0.56063 6.58824 0.762987V16.7857H12.7059C13.1115 16.7857 13.5005 16.9465 13.7873 17.2327C14.0742 17.5188 14.2353 17.907 14.2353 18.3117V19.8377C14.4381 19.8377 14.6326 19.918 14.776 20.0611C14.9194 20.2042 15 20.3983 15 20.6007V22.8896C15 23.092 14.9194 23.286 14.776 23.4291C14.6326 23.5722 14.4381 23.6526 14.2353 23.6526H13.4706V32.8084C13.4706 33.0108 13.39 33.2049 13.2466 33.348C13.1032 33.491 12.9087 33.5714 12.7059 33.5714H10.4118C10.209 33.5714 10.0144 33.491 9.87104 33.348C9.72763 33.2049 9.64706 33.0108 9.64706 32.8084V23.6526H5.82353V32.8084C5.82353 33.0108 5.74296 33.2049 5.59955 33.348C5.45614 33.491 5.26164 33.5714 5.05882 33.5714H2.76471C2.56189 33.5714 2.36739 33.491 2.22398 33.348C2.08057 33.2049 2 33.0108 2 32.8084V0.762987C2 0.56063 2.08057 0.366561 2.22398 0.223473C2.36739 0.0803853 2.56189 0 2.76471 0ZM13.4706 22.1266V21.3636H3.52941V22.1266H13.4706ZM12.7059 18.3117H6.58824V19.0747H5.05882V1.52597H3.52941V19.8377H12.7059V18.3117ZM11.1765 32.0455H11.9412V23.6526H11.1765V32.0455ZM3.52941 32.0455H4.29412V23.6526H3.52941V32.0455Z" fill="#C4C4C4"/>
<path d="M15.125 15.8791C14.7106 15.8791 14.3132 15.717 14.0201 15.4285C13.7271 15.14 13.5625 14.7487 13.5625 14.3407V13.5714H12.7812C12.574 13.5714 12.3753 13.4904 12.2288 13.3461C12.0823 13.2019 12 13.0062 12 12.8022V11.2637C12 10.6517 12.2469 10.0647 12.6865 9.63196C13.126 9.19919 13.7221 8.95606 14.3438 8.95606H16.2047C15.8672 8.67009 15.5962 8.31602 15.4099 7.91786C15.2236 7.51969 15.1264 7.08674 15.125 6.64836H13.5625V5.1099H15.125V4.34067C15.125 4.13666 15.2073 3.941 15.3538 3.79674C15.5003 3.65248 15.699 3.57144 15.9062 3.57144H20.5938C20.801 3.57144 20.9997 3.65248 21.1462 3.79674C21.2927 3.941 21.375 4.13666 21.375 4.34067V6.64836C21.3736 7.08674 21.2764 7.51969 21.0901 7.91786C20.9038 8.31602 20.6328 8.67009 20.2953 8.95606H28.7047C28.3672 8.67009 28.0962 8.31602 27.9099 7.91786C27.7236 7.51969 27.6264 7.08674 27.625 6.64836V4.34067C27.625 4.13666 27.7073 3.941 27.8538 3.79674C28.0003 3.65248 28.199 3.57144 28.4062 3.57144H33.0938C33.301 3.57144 33.4997 3.65248 33.6462 3.79674C33.7927 3.941 33.875 4.13666 33.875 4.34067V5.1099H35.4375V6.64836H33.875C33.8736 7.08674 33.7764 7.51969 33.5901 7.91786C33.4038 8.31602 33.1328 8.67009 32.7953 8.95606H34.6562C35.2779 8.95606 35.874 9.19919 36.3135 9.63196C36.7531 10.0647 37 10.6517 37 11.2637V12.8022C37 13.0062 36.9177 13.2019 36.7712 13.3461C36.6247 13.4904 36.426 13.5714 36.2188 13.5714H35.4375V14.3407C35.4375 14.7487 35.2729 15.14 34.9799 15.4285C34.6868 15.717 34.2894 15.8791 33.875 15.8791H26.8438V28.9561H27.625C27.8322 28.9561 28.0309 29.0371 28.1774 29.1814C28.3239 29.3256 28.4062 29.5213 28.4062 29.7253V32.033H31.5312V33.5714H17.4688V32.033H20.5938V29.7253C20.5938 29.5213 20.6761 29.3256 20.8226 29.1814C20.9691 29.0371 21.1678 28.9561 21.375 28.9561H22.1562V15.8791H15.125ZM19.8125 5.1099H16.6875V6.64836C16.6875 7.05639 16.8521 7.4477 17.1451 7.73622C17.4382 8.02474 17.8356 8.18683 18.25 8.18683C18.6644 8.18683 19.0618 8.02474 19.3549 7.73622C19.6479 7.4477 19.8125 7.05639 19.8125 6.64836V5.1099ZM32.3125 5.1099H29.1875V6.64836C29.1875 7.05639 29.3521 7.4477 29.6451 7.73622C29.9382 8.02474 30.3356 8.18683 30.75 8.18683C31.1644 8.18683 31.5618 8.02474 31.8549 7.73622C32.1479 7.4477 32.3125 7.05639 32.3125 6.64836V5.1099ZM35.4375 11.2637C35.4375 11.0597 35.3552 10.8641 35.2087 10.7198C35.0622 10.5756 34.8635 10.4945 34.6562 10.4945H14.3438C14.1365 10.4945 13.9378 10.5756 13.7913 10.7198C13.6448 10.8641 13.5625 11.0597 13.5625 11.2637V12.033H35.4375V11.2637ZM33.875 13.5714H15.125V14.3407H33.875V13.5714ZM26.8438 32.033V30.4945H22.1562V32.033H26.8438ZM23.7188 28.9561H25.2812V15.8791H23.7188V28.9561Z" fill="#C4C4C4"/>
<path d="M34.7647 19.8377V18.3117C34.7647 17.907 34.9258 17.5188 35.2127 17.2327C35.4995 16.9465 35.8885 16.7857 36.2941 16.7857H42.4118V0.762987C42.4118 0.56063 42.4923 0.366561 42.6357 0.223473C42.7792 0.0803853 42.9737 0 43.1765 0H46.2353C46.4381 0 46.6326 0.0803853 46.776 0.223473C46.9194 0.366561 47 0.56063 47 0.762987V32.8084C47 33.0108 46.9194 33.2049 46.776 33.348C46.6326 33.491 46.4381 33.5714 46.2353 33.5714H43.9412C43.7384 33.5714 43.5439 33.491 43.4004 33.348C43.257 33.2049 43.1765 33.0108 43.1765 32.8084V23.6526H39.3529V32.8084C39.3529 33.0108 39.2724 33.2049 39.129 33.348C38.9856 33.491 38.791 33.5714 38.5882 33.5714H36.2941C36.0913 33.5714 35.8968 33.491 35.7534 33.348C35.61 33.2049 35.5294 33.0108 35.5294 32.8084V23.6526H34.7647C34.5619 23.6526 34.3674 23.5722 34.224 23.4291C34.0806 23.286 34 23.092 34 22.8896V20.6007C34 20.3983 34.0806 20.2042 34.224 20.0611C34.3674 19.918 34.5619 19.8377 34.7647 19.8377ZM45.4706 1.52597H43.9412V19.0747H42.4118V18.3117H36.2941V19.8377H45.4706V1.52597ZM44.7059 32.0455H45.4706V23.6526H44.7059V32.0455ZM37.0588 32.0455H37.8235V23.6526H37.0588V32.0455ZM35.5294 22.1266H45.4706V21.3636H35.5294V22.1266Z" fill="#C4C4C4"/>
</svg>
